<svg xmlns="http://www.w3.org/2000/svg" xmlns:xlink="http://www.w3.org/1999/xlink" width="500" zoomAndPan="magnify" viewBox="0 0 375 374.999991" height="500" preserveAspectRatio="xMidYMid meet" version="1.0"><defs><g/><clipPath id="f22da48edc"><path d="M 37.5 170 L 113 170 L 113 242.484375 L 37.5 242.484375 Z M 37.5 170 " clip-rule="nonzero"/></clipPath><clipPath id="aca22b6a91"><path d="M 72 132.234375 L 147.75 132.234375 L 147.75 195 L 72 195 Z M 72 132.234375 " clip-rule="nonzero"/></clipPath><clipPath id="8479a0c858"><rect x="0" width="178" y="0" height="40"/></clipPath></defs><rect x="-37.5" width="450" fill="#ffffff" y="-37.499999" height="449.999989" fill-opacity="1"/><rect x="-37.5" width="450" fill="#ffffff" y="-37.499999" height="449.999989" fill-opacity="1"/><g clip-path="url(#f22da48edc)"><path fill="#27b29e" d="M 108.378906 217.132812 C 106.789062 215.542969 105.3125 213.832031 103.980469 212.03125 L 103.980469 222.5625 C 103.980469 222.9375 103.980469 223.308594 103.957031 223.660156 C 103.933594 224.011719 103.886719 224.386719 103.816406 224.761719 C 103.746094 225.136719 103.675781 225.484375 103.558594 225.835938 C 103.464844 226.1875 103.347656 226.539062 103.207031 226.890625 C 103.066406 227.242188 102.925781 227.570312 102.738281 227.898438 C 102.578125 228.222656 102.390625 228.550781 102.179688 228.855469 C 101.96875 229.160156 101.757812 229.464844 101.523438 229.746094 C 101.289062 230.027344 101.054688 230.308594 100.773438 230.5625 C 100.515625 230.820312 100.234375 231.078125 99.957031 231.3125 C 99.675781 231.546875 99.371094 231.78125 99.066406 231.992188 C 98.761719 232.203125 98.433594 232.390625 98.105469 232.578125 C 97.777344 232.765625 97.453125 232.902344 97.101562 233.066406 C 96.75 233.207031 96.421875 233.347656 96.046875 233.441406 C 95.695312 233.558594 95.34375 233.652344 94.972656 233.722656 C 94.597656 233.792969 94.246094 233.839844 93.871094 233.886719 C 93.496094 233.933594 93.121094 233.933594 92.769531 233.933594 C 92.398438 233.933594 92.023438 233.910156 91.671875 233.886719 C 91.296875 233.839844 90.945312 233.792969 90.570312 233.722656 C 90.199219 233.652344 89.847656 233.558594 89.496094 233.441406 C 89.144531 233.324219 88.792969 233.207031 88.441406 233.066406 C 88.089844 232.925781 87.765625 232.765625 87.4375 232.578125 C 87.109375 232.390625 86.804688 232.203125 86.476562 231.992188 C 86.171875 231.78125 85.867188 231.570312 85.585938 231.3125 C 85.308594 231.078125 85.027344 230.820312 84.769531 230.5625 C 84.511719 230.308594 84.253906 230.027344 84.019531 229.746094 C 83.785156 229.464844 83.574219 229.160156 83.363281 228.855469 C 83.152344 228.550781 82.964844 228.222656 82.804688 227.898438 C 82.640625 227.570312 82.476562 227.242188 82.335938 226.890625 C 82.195312 226.539062 82.078125 226.1875 81.984375 225.835938 C 81.890625 225.484375 81.796875 225.113281 81.726562 224.761719 C 81.65625 224.386719 81.609375 224.035156 81.585938 223.660156 C 81.5625 223.285156 81.539062 222.914062 81.5625 222.5625 L 81.5625 198.34375 L 57.414062 198.34375 C 56.828125 198.34375 56.242188 198.296875 55.660156 198.203125 C 55.074219 198.109375 54.511719 197.96875 53.949219 197.78125 C 53.390625 197.59375 52.851562 197.382812 52.335938 197.101562 C 51.820312 196.84375 51.304688 196.515625 50.839844 196.1875 C 50.371094 195.839844 49.925781 195.464844 49.503906 195.042969 C 49.082031 194.621094 48.707031 194.175781 48.359375 193.707031 C 48.007812 193.242188 47.703125 192.726562 47.445312 192.210938 C 47.1875 191.695312 46.953125 191.132812 46.765625 190.597656 C 46.578125 190.035156 46.460938 189.472656 46.367188 188.886719 C 46.273438 188.304688 46.226562 187.71875 46.226562 187.132812 C 46.226562 186.546875 46.273438 185.964844 46.367188 185.378906 C 46.460938 184.792969 46.601562 184.230469 46.789062 183.671875 C 46.976562 183.109375 47.210938 182.570312 47.46875 182.054688 C 47.726562 181.539062 48.054688 181.027344 48.382812 180.558594 C 48.730469 180.089844 49.105469 179.644531 49.527344 179.222656 C 49.949219 178.804688 50.394531 178.429688 50.863281 178.101562 L 51.703125 177.492188 C 50.605469 176.578125 49.597656 175.597656 48.660156 174.519531 C 47.65625 173.398438 46.742188 172.203125 45.878906 170.964844 L 45.457031 171.269531 C 45.035156 171.570312 44.636719 171.898438 44.261719 172.25 C 43.863281 172.601562 43.492188 172.953125 43.140625 173.328125 C 42.789062 173.703125 42.4375 174.074219 42.109375 174.472656 C 41.78125 174.871094 41.453125 175.269531 41.175781 175.714844 C 40.871094 176.136719 40.589844 176.578125 40.332031 177.023438 C 40.074219 177.46875 39.816406 177.914062 39.582031 178.382812 C 39.347656 178.847656 39.136719 179.316406 38.949219 179.785156 C 38.761719 180.253906 38.578125 180.746094 38.4375 181.238281 C 38.273438 181.726562 38.15625 182.21875 38.039062 182.734375 C 37.921875 183.25 37.828125 183.738281 37.757812 184.253906 C 37.6875 184.769531 37.617188 185.285156 37.59375 185.800781 C 37.570312 186.335938 37.570312 186.851562 37.570312 187.367188 C 37.570312 187.882812 37.59375 188.398438 37.640625 188.910156 C 37.6875 189.425781 37.757812 189.941406 37.828125 190.457031 C 37.921875 190.972656 38.015625 191.460938 38.132812 191.976562 C 38.25 192.46875 38.414062 192.984375 38.554688 193.476562 C 38.71875 193.964844 38.902344 194.457031 39.089844 194.925781 C 39.300781 195.394531 39.511719 195.863281 39.746094 196.328125 C 39.980469 196.796875 40.238281 197.242188 40.519531 197.6875 C 40.800781 198.132812 41.082031 198.550781 41.382812 198.972656 C 41.6875 199.394531 42.015625 199.792969 42.34375 200.191406 C 42.671875 200.589844 43.046875 200.960938 43.398438 201.3125 C 43.769531 201.6875 44.144531 202.015625 44.542969 202.367188 C 44.941406 202.695312 45.339844 203.023438 45.761719 203.328125 C 46.179688 203.628906 46.601562 203.910156 47.046875 204.191406 C 47.492188 204.472656 47.9375 204.707031 48.40625 204.941406 C 48.871094 205.175781 49.339844 205.386719 49.808594 205.597656 C 50.277344 205.785156 50.769531 205.96875 51.257812 206.132812 C 51.75 206.296875 52.242188 206.4375 52.757812 206.554688 C 53.25 206.671875 53.761719 206.765625 54.277344 206.859375 C 54.792969 206.929688 55.308594 207 55.824219 207.046875 C 56.335938 207.09375 56.851562 207.117188 57.367188 207.117188 L 72.882812 207.117188 L 72.882812 222.609375 C 72.882812 222.9375 72.882812 223.261719 72.882812 223.589844 C 72.882812 223.917969 72.90625 224.246094 72.929688 224.574219 C 72.953125 224.902344 73 225.230469 73.046875 225.554688 C 73.09375 225.882812 73.136719 226.210938 73.207031 226.539062 C 73.277344 226.867188 73.324219 227.195312 73.417969 227.5 C 73.488281 227.828125 73.582031 228.128906 73.675781 228.457031 C 73.769531 228.761719 73.863281 229.089844 73.980469 229.394531 C 74.097656 229.699219 74.191406 230.003906 74.332031 230.308594 C 74.449219 230.609375 74.589844 230.914062 74.730469 231.21875 C 74.871094 231.523438 75.011719 231.804688 75.152344 232.109375 C 75.316406 232.390625 75.457031 232.695312 75.617188 232.972656 C 75.78125 233.253906 75.945312 233.535156 76.132812 233.816406 C 76.320312 234.097656 76.507812 234.355469 76.695312 234.636719 C 76.882812 234.894531 77.09375 235.152344 77.304688 235.40625 C 77.515625 235.664062 77.726562 235.921875 77.9375 236.15625 C 78.144531 236.390625 78.378906 236.648438 78.613281 236.882812 C 78.847656 237.117188 79.082031 237.351562 79.316406 237.5625 C 79.550781 237.769531 79.808594 238.003906 80.066406 238.214844 C 80.324219 238.425781 80.578125 238.636719 80.835938 238.824219 C 81.09375 239.011719 81.375 239.222656 81.632812 239.386719 C 81.914062 239.574219 82.171875 239.738281 82.453125 239.925781 C 82.734375 240.089844 83.011719 240.25 83.316406 240.414062 C 83.597656 240.578125 83.902344 240.71875 84.207031 240.859375 C 84.511719 241 84.792969 241.140625 85.097656 241.257812 C 85.398438 241.375 85.703125 241.515625 86.007812 241.609375 C 86.3125 241.726562 86.640625 241.820312 86.945312 241.914062 C 87.25 242.007812 87.578125 242.101562 87.902344 242.171875 C 88.230469 242.242188 88.535156 242.335938 88.863281 242.382812 C 89.191406 242.429688 89.519531 242.5 89.824219 242.546875 C 90.152344 242.59375 90.476562 242.640625 90.804688 242.664062 C 91.132812 242.683594 91.460938 242.707031 91.789062 242.730469 C 92.117188 242.753906 92.445312 242.753906 92.769531 242.753906 C 93.097656 242.753906 93.425781 242.753906 93.753906 242.730469 C 94.082031 242.707031 94.410156 242.683594 94.738281 242.664062 C 95.066406 242.640625 95.390625 242.59375 95.71875 242.546875 C 96.046875 242.5 96.375 242.453125 96.679688 242.382812 C 96.984375 242.3125 97.3125 242.242188 97.640625 242.171875 C 97.964844 242.101562 98.269531 242.007812 98.597656 241.914062 C 98.902344 241.820312 99.230469 241.703125 99.535156 241.609375 C 99.839844 241.492188 100.140625 241.375 100.445312 241.257812 C 100.75 241.140625 101.054688 241 101.335938 240.859375 C 101.640625 240.71875 101.921875 240.578125 102.226562 240.414062 C 102.507812 240.25 102.808594 240.089844 103.089844 239.925781 C 103.371094 239.761719 103.652344 239.574219 103.910156 239.386719 C 104.191406 239.199219 104.449219 239.011719 104.707031 238.824219 C 104.964844 238.636719 105.21875 238.425781 105.476562 238.214844 C 105.734375 238.003906 105.96875 237.792969 106.226562 237.5625 C 106.460938 237.351562 106.695312 237.117188 106.929688 236.882812 C 107.164062 236.648438 107.375 236.414062 107.605469 236.15625 C 107.816406 235.921875 108.027344 235.664062 108.238281 235.40625 C 108.449219 235.152344 108.636719 234.894531 108.847656 234.636719 C 109.035156 234.378906 109.222656 234.097656 109.410156 233.816406 C 109.597656 233.535156 109.761719 233.253906 109.925781 232.972656 C 110.085938 232.695312 110.25 232.414062 110.390625 232.109375 C 110.53125 231.828125 110.695312 231.523438 110.8125 231.21875 C 110.953125 230.914062 111.070312 230.609375 111.210938 230.308594 C 111.328125 230.003906 111.445312 229.699219 111.5625 229.394531 C 111.679688 229.089844 111.773438 228.761719 111.867188 228.457031 C 111.960938 228.152344 112.054688 227.828125 112.125 227.5 C 112.195312 227.171875 112.265625 226.867188 112.335938 226.539062 C 112.402344 226.210938 112.449219 225.882812 112.496094 225.554688 C 112.542969 225.230469 112.566406 224.902344 112.613281 224.574219 C 112.636719 224.246094 112.660156 223.917969 112.660156 223.589844 C 112.660156 223.261719 112.683594 222.9375 112.660156 222.609375 L 112.660156 220.828125 C 111.140625 219.660156 109.691406 218.464844 108.378906 217.132812 Z M 108.378906 217.132812 " fill-opacity="1" fill-rule="nonzero"/></g><g clip-path="url(#aca22b6a91)"><path fill="#2d6fe0" d="M 74.800781 171.128906 C 74.144531 172.671875 73.230469 174.050781 72.0625 175.246094 L 72.34375 175.902344 L 72.34375 175.972656 L 81.609375 175.972656 L 81.609375 151.800781 C 81.609375 151.449219 81.632812 151.074219 81.679688 150.722656 C 81.726562 150.371094 81.773438 149.996094 81.867188 149.644531 C 81.9375 149.296875 82.03125 148.945312 82.148438 148.59375 C 82.265625 148.242188 82.382812 147.914062 82.523438 147.585938 C 82.664062 147.257812 82.828125 146.929688 82.988281 146.605469 C 83.152344 146.277344 83.363281 145.972656 83.550781 145.691406 C 83.761719 145.386719 83.972656 145.105469 84.207031 144.824219 C 84.441406 144.542969 84.675781 144.289062 84.933594 144.03125 C 85.191406 143.773438 85.46875 143.539062 85.75 143.304688 C 86.03125 143.070312 86.3125 142.859375 86.617188 142.671875 C 86.921875 142.484375 87.226562 142.296875 87.554688 142.132812 C 87.878906 141.972656 88.207031 141.808594 88.535156 141.667969 C 88.863281 141.527344 89.214844 141.410156 89.566406 141.316406 C 89.917969 141.222656 90.269531 141.128906 90.617188 141.058594 C 90.96875 140.988281 91.320312 140.941406 91.695312 140.894531 C 92.046875 140.847656 92.421875 140.847656 92.769531 140.847656 C 93.121094 140.847656 93.496094 140.871094 93.847656 140.894531 C 94.199219 140.917969 94.574219 140.988281 94.925781 141.058594 C 95.273438 141.128906 95.625 141.222656 95.976562 141.316406 C 96.328125 141.410156 96.65625 141.550781 97.007812 141.667969 C 97.335938 141.808594 97.664062 141.949219 97.988281 142.132812 C 98.316406 142.296875 98.621094 142.484375 98.925781 142.671875 C 99.230469 142.859375 99.511719 143.09375 99.792969 143.304688 C 100.074219 143.539062 100.351562 143.773438 100.609375 144.03125 C 100.867188 144.289062 101.125 144.542969 101.335938 144.824219 C 101.570312 145.105469 101.78125 145.386719 101.992188 145.691406 C 102.203125 145.996094 102.390625 146.300781 102.554688 146.605469 C 102.714844 146.90625 102.878906 147.234375 103.019531 147.585938 C 103.160156 147.914062 103.300781 148.265625 103.394531 148.59375 C 103.511719 148.945312 103.605469 149.296875 103.675781 149.644531 C 103.746094 149.996094 103.816406 150.347656 103.863281 150.722656 C 103.910156 151.074219 103.933594 151.449219 103.933594 151.800781 L 103.933594 175.996094 L 108.097656 175.996094 C 108.777344 175.667969 109.503906 175.410156 110.226562 175.246094 C 110.976562 175.082031 111.726562 174.988281 112.472656 174.988281 C 113.222656 174.988281 113.972656 175.082031 114.722656 175.246094 C 115.46875 175.410156 116.171875 175.667969 116.851562 175.996094 L 128.105469 175.996094 C 128.480469 175.996094 128.832031 176.019531 129.207031 176.042969 C 129.582031 176.089844 129.929688 176.136719 130.28125 176.207031 C 130.632812 176.277344 130.984375 176.367188 131.335938 176.460938 C 131.6875 176.578125 132.039062 176.695312 132.363281 176.835938 C 132.691406 176.976562 133.042969 177.140625 133.347656 177.304688 C 133.675781 177.46875 133.980469 177.65625 134.285156 177.867188 C 134.585938 178.078125 134.890625 178.289062 135.171875 178.523438 C 135.453125 178.757812 135.734375 178.988281 135.992188 179.246094 C 136.25 179.503906 136.507812 179.785156 136.71875 180.066406 C 136.953125 180.347656 137.160156 180.652344 137.371094 180.957031 C 137.582031 181.261719 137.769531 181.5625 137.933594 181.890625 C 138.097656 182.21875 138.261719 182.546875 138.402344 182.875 C 138.542969 183.203125 138.660156 183.554688 138.777344 183.902344 C 138.894531 184.253906 138.964844 184.605469 139.035156 184.957031 C 139.105469 185.308594 139.152344 185.683594 139.199219 186.035156 C 139.246094 186.40625 139.246094 186.757812 139.246094 187.132812 C 139.246094 187.8125 139.175781 188.492188 139.058594 189.144531 C 142.214844 189.777344 144.859375 191.019531 146.40625 193.777344 C 146.5 193.917969 146.546875 194.082031 146.640625 194.246094 L 146.941406 193.359375 C 147.058594 192.984375 147.175781 192.609375 147.269531 192.234375 C 147.363281 191.859375 147.457031 191.484375 147.527344 191.089844 C 147.597656 190.714844 147.667969 190.316406 147.738281 189.941406 C 147.808594 189.566406 147.832031 189.167969 147.878906 188.769531 C 147.902344 188.375 147.925781 188 147.949219 187.601562 C 147.949219 187.203125 147.949219 186.828125 147.949219 186.429688 C 147.925781 186.035156 147.902344 185.660156 147.878906 185.261719 C 147.855469 184.863281 147.785156 184.488281 147.738281 184.089844 C 147.667969 183.695312 147.597656 183.320312 147.527344 182.945312 C 147.433594 182.570312 147.339844 182.171875 147.246094 181.796875 C 147.152344 181.421875 147.035156 181.050781 146.894531 180.675781 C 146.78125 180.300781 146.640625 179.949219 146.476562 179.574219 C 146.335938 179.222656 146.171875 178.847656 146.007812 178.5 C 145.84375 178.148438 145.65625 177.796875 145.46875 177.46875 C 145.28125 177.140625 145.070312 176.789062 144.859375 176.460938 C 144.648438 176.136719 144.4375 175.808594 144.207031 175.503906 C 143.972656 175.175781 143.738281 174.871094 143.480469 174.566406 C 143.222656 174.261719 142.964844 173.957031 142.707031 173.679688 C 142.449219 173.398438 142.167969 173.117188 141.890625 172.835938 C 141.609375 172.554688 141.328125 172.296875 141.023438 172.039062 C 140.71875 171.78125 140.414062 171.546875 140.109375 171.316406 C 139.804688 171.082031 139.476562 170.847656 139.152344 170.636719 C 138.824219 170.425781 138.496094 170.214844 138.167969 170.003906 C 137.839844 169.816406 137.488281 169.605469 137.136719 169.441406 C 136.789062 169.253906 136.4375 169.089844 136.085938 168.929688 C 135.734375 168.765625 135.359375 168.625 134.984375 168.484375 C 134.609375 168.34375 134.261719 168.226562 133.886719 168.109375 C 133.511719 167.992188 133.136719 167.898438 132.761719 167.804688 C 132.386719 167.710938 131.992188 167.640625 131.617188 167.570312 C 131.242188 167.5 130.84375 167.453125 130.445312 167.40625 C 130.046875 167.359375 129.671875 167.335938 129.277344 167.3125 C 128.878906 167.289062 128.503906 167.265625 128.105469 167.289062 L 112.613281 167.289062 L 112.613281 151.800781 C 112.613281 151.144531 112.566406 150.511719 112.496094 149.878906 C 112.425781 149.25 112.3125 148.617188 112.195312 147.984375 C 112.054688 147.351562 111.890625 146.746094 111.703125 146.113281 C 111.515625 145.503906 111.28125 144.894531 111.023438 144.3125 C 110.765625 143.726562 110.484375 143.140625 110.179688 142.578125 C 109.878906 142.015625 109.527344 141.457031 109.175781 140.941406 C 108.800781 140.402344 108.425781 139.886719 108.003906 139.398438 C 107.582031 138.90625 107.164062 138.4375 106.695312 137.96875 C 106.226562 137.523438 105.757812 137.078125 105.242188 136.683594 C 104.753906 136.285156 104.214844 135.886719 103.675781 135.535156 C 103.136719 135.183594 102.578125 134.855469 102.015625 134.554688 C 101.453125 134.25 100.867188 133.992188 100.257812 133.734375 C 99.675781 133.5 99.066406 133.265625 98.433594 133.101562 C 97.824219 132.914062 97.195312 132.75 96.5625 132.632812 C 95.929688 132.515625 95.296875 132.421875 94.644531 132.351562 C 94.082031 132.257812 93.449219 132.234375 92.792969 132.234375 C 92.140625 132.234375 91.507812 132.257812 90.875 132.328125 C 90.246094 132.398438 89.589844 132.492188 88.957031 132.609375 C 88.324219 132.726562 87.695312 132.890625 87.085938 133.078125 C 86.476562 133.265625 85.867188 133.476562 85.261719 133.710938 C 84.675781 133.945312 84.089844 134.226562 83.503906 134.53125 C 82.941406 134.832031 82.382812 135.160156 81.84375 135.511719 C 81.304688 135.863281 80.789062 136.238281 80.277344 136.660156 C 79.785156 137.058594 79.292969 137.5 78.824219 137.945312 C 78.355469 138.390625 77.9375 138.882812 77.515625 139.375 C 77.09375 139.863281 76.71875 140.378906 76.34375 140.917969 C 75.96875 141.457031 75.640625 141.992188 75.339844 142.554688 C 75.035156 143.117188 74.753906 143.703125 74.496094 144.289062 C 74.238281 144.871094 74.027344 145.480469 73.816406 146.089844 C 73.628906 146.699219 73.464844 147.328125 73.324219 147.960938 C 73.183594 148.59375 73.09375 149.226562 73.023438 149.855469 C 72.953125 150.488281 72.90625 151.144531 72.90625 151.777344 L 72.90625 152.148438 C 75.269531 157.859375 76.601562 166.773438 74.800781 171.128906 Z M 74.800781 171.128906 " fill-opacity="1" fill-rule="nonzero"/></g><path fill="#27b29e" d="M 43.863281 160.949219 C 44.238281 163.804688 47.164062 168.929688 50.628906 172.835938 C 52.054688 174.449219 54.183594 176.507812 56.195312 177.257812 C 57.109375 177.5625 58.023438 177.773438 58.980469 177.867188 C 59.941406 177.960938 60.875 177.9375 61.835938 177.796875 L 62.84375 180.089844 C 62.914062 180.253906 63.007812 180.417969 63.125 180.558594 C 63.242188 180.699219 63.355469 180.839844 63.519531 180.957031 C 63.660156 181.074219 63.824219 181.167969 63.988281 181.238281 C 64.152344 181.304688 64.339844 181.351562 64.527344 181.398438 L 64.621094 181.726562 L 65.675781 181.261719 C 65.765625 181.5625 65.882812 181.820312 66 182.078125 C 66.703125 183.671875 67.640625 185.144531 68.785156 186.429688 C 69.792969 187.53125 70.914062 188.515625 72.15625 189.332031 C 73.394531 190.152344 74.730469 190.808594 76.15625 191.296875 C 80.253906 192.773438 83.691406 192.28125 86.734375 191.835938 C 91.929688 191.089844 95.367188 190.597656 100.097656 200.566406 C 102.808594 206.320312 106.414062 211.539062 110.203125 215.308594 C 114.722656 219.777344 119.496094 222.164062 124.058594 222.28125 C 130.820312 222.421875 136.742188 217.765625 141.703125 208.449219 C 145.070312 202.109375 145.890625 197.851562 144.324219 195.066406 C 142.378906 191.601562 137.582031 191.34375 132.015625 191.019531 C 127.777344 190.785156 122.980469 190.503906 119.191406 188.722656 C 119.261719 188.585938 119.332031 188.445312 119.402344 188.328125 C 119.472656 188.1875 119.519531 188.046875 119.589844 187.90625 C 119.636719 187.765625 119.707031 187.625 119.753906 187.484375 C 119.796875 187.34375 119.84375 187.203125 119.890625 187.039062 C 119.9375 186.898438 119.960938 186.734375 120.007812 186.59375 C 120.03125 186.453125 120.054688 186.289062 120.078125 186.152344 C 120.101562 185.988281 120.125 185.847656 120.125 185.683594 C 120.148438 185.519531 120.148438 185.378906 120.148438 185.214844 C 120.148438 185.050781 120.148438 184.910156 120.148438 184.746094 C 120.148438 184.582031 120.125 184.441406 120.125 184.277344 C 120.101562 184.113281 120.078125 183.972656 120.054688 183.832031 C 120.03125 183.695312 120.007812 183.53125 119.960938 183.390625 C 119.9375 183.25 119.890625 183.085938 119.84375 182.945312 C 119.796875 182.804688 119.753906 182.664062 119.707031 182.5 C 119.660156 182.359375 119.589844 182.21875 119.542969 182.078125 C 119.472656 181.9375 119.425781 181.796875 119.355469 181.65625 C 119.285156 181.515625 119.214844 181.375 119.144531 181.261719 C 119.074219 181.121094 118.980469 181.003906 118.910156 180.863281 C 118.816406 180.746094 118.746094 180.605469 118.652344 180.488281 C 118.558594 180.371094 118.464844 180.253906 118.371094 180.136719 C 118.277344 180.019531 118.160156 179.902344 118.066406 179.808594 C 117.949219 179.691406 117.855469 179.597656 117.738281 179.480469 C 117.621094 179.386719 117.503906 179.269531 117.386719 179.175781 C 117.273438 179.082031 117.15625 178.988281 117.015625 178.894531 C 116.898438 178.804688 116.757812 178.734375 116.640625 178.640625 C 116.5 178.570312 116.382812 178.476562 116.242188 178.40625 C 116.101562 178.335938 115.960938 178.265625 115.820312 178.195312 C 115.679688 178.125 115.539062 178.078125 115.398438 178.007812 C 115.257812 177.960938 115.117188 177.890625 114.976562 177.84375 C 114.839844 177.796875 114.675781 177.75 114.535156 177.726562 C 114.394531 177.679688 114.230469 177.65625 114.089844 177.632812 C 113.949219 177.609375 113.785156 177.585938 113.644531 177.5625 C 113.503906 177.539062 113.339844 177.515625 113.175781 177.515625 C 113.011719 177.515625 112.871094 177.492188 112.707031 177.492188 C 112.542969 177.492188 112.40625 177.492188 112.242188 177.492188 C 112.078125 177.492188 111.9375 177.515625 111.773438 177.539062 C 111.609375 177.5625 111.46875 177.585938 111.328125 177.609375 C 111.1875 177.632812 111.023438 177.65625 110.882812 177.703125 C 110.742188 177.75 110.578125 177.773438 110.4375 177.820312 C 110.296875 177.867188 110.15625 177.914062 109.992188 177.960938 C 109.855469 178.007812 109.714844 178.078125 109.574219 178.125 C 109.433594 178.195312 109.292969 178.242188 109.152344 178.3125 C 109.011719 178.382812 108.871094 178.453125 108.753906 178.546875 C 108.636719 178.640625 108.496094 178.710938 108.355469 178.804688 C 108.238281 178.894531 108.097656 178.988281 107.980469 179.082031 C 107.863281 179.175781 107.746094 179.269531 107.628906 179.363281 C 107.511719 179.457031 107.398438 179.574219 107.304688 179.667969 C 107.1875 179.785156 107.09375 179.878906 107 179.996094 C 106.90625 180.113281 106.789062 180.230469 106.695312 180.347656 C 106.601562 180.464844 106.507812 180.582031 106.414062 180.722656 C 106.320312 180.839844 106.25 180.980469 106.15625 181.097656 C 106.085938 181.238281 105.992188 181.351562 105.921875 181.492188 C 105.851562 181.632812 105.78125 181.773438 105.710938 181.914062 C 105.640625 182.054688 105.59375 182.195312 105.523438 182.335938 C 105.476562 182.476562 105.429688 182.617188 105.382812 182.78125 C 105.335938 182.921875 105.289062 183.0625 105.265625 183.226562 C 105.21875 183.367188 105.195312 183.53125 105.171875 183.671875 C 105.148438 183.808594 105.125 183.972656 105.101562 184.113281 C 105.078125 184.277344 105.078125 184.417969 105.054688 184.582031 C 105.054688 184.746094 105.035156 184.886719 105.035156 185.050781 C 105.035156 185.214844 105.035156 185.355469 105.054688 185.519531 C 105.054688 185.683594 105.078125 185.824219 105.101562 185.988281 C 105.125 186.152344 105.148438 186.289062 105.171875 186.429688 C 105.195312 186.570312 105.242188 186.734375 105.265625 186.875 C 105.289062 187.015625 105.335938 187.179688 105.382812 187.320312 C 105.429688 187.460938 105.476562 187.601562 105.523438 187.765625 C 105.570312 187.90625 105.640625 188.046875 105.710938 188.1875 C 105.78125 188.328125 105.851562 188.46875 105.921875 188.609375 C 105.992188 188.746094 106.0625 188.863281 106.15625 189.003906 C 106.226562 189.144531 106.320312 189.261719 106.414062 189.378906 C 106.507812 189.496094 106.601562 189.636719 106.695312 189.753906 C 106.789062 189.871094 106.882812 189.988281 107 190.105469 C 107.09375 190.222656 107.210938 190.339844 107.328125 190.433594 C 107.445312 190.550781 107.535156 190.644531 107.652344 190.738281 C 107.769531 190.832031 107.886719 190.925781 108.003906 191.019531 C 108.121094 191.109375 108.238281 191.203125 108.378906 191.296875 C 108.496094 191.390625 108.636719 191.460938 108.777344 191.554688 C 108.917969 191.625 109.035156 191.71875 109.175781 191.789062 C 109.316406 191.859375 109.457031 191.929688 109.597656 191.976562 C 109.738281 192.046875 109.878906 192.09375 110.015625 192.140625 C 110.15625 192.1875 110.296875 192.234375 110.460938 192.28125 C 110.601562 192.328125 110.765625 192.375 110.90625 192.398438 C 111.046875 192.445312 111.210938 192.46875 111.351562 192.492188 C 111.492188 192.515625 111.65625 192.539062 111.796875 192.5625 C 111.960938 192.585938 112.101562 192.585938 112.265625 192.609375 C 112.425781 192.609375 112.566406 192.609375 112.730469 192.609375 C 112.894531 192.609375 113.035156 192.609375 113.199219 192.585938 C 113.363281 192.585938 113.503906 192.5625 113.667969 192.539062 C 113.808594 192.515625 113.972656 192.492188 114.113281 192.46875 C 114.253906 192.445312 114.417969 192.398438 114.558594 192.375 C 114.699219 192.328125 114.863281 192.304688 115 192.257812 C 115.140625 192.210938 115.28125 192.164062 115.421875 192.09375 C 115.5625 192.046875 115.703125 191.976562 115.84375 191.90625 C 115.984375 191.835938 116.125 191.765625 116.265625 191.695312 C 116.40625 191.625 116.523438 191.554688 116.664062 191.460938 C 116.804688 191.390625 116.921875 191.296875 117.039062 191.203125 C 121.625 193.636719 127.078125 193.941406 131.921875 194.222656 C 136.34375 194.480469 140.507812 194.714844 141.585938 196.609375 C 142.238281 197.757812 142.308594 200.472656 138.917969 206.882812 C 134.585938 215.050781 129.625 219.144531 124.222656 219.003906 C 115.515625 218.816406 107.421875 208.195312 103.136719 199.160156 C 97.382812 187.039062 91.789062 187.835938 86.382812 188.609375 C 83.597656 189.003906 80.71875 189.425781 77.375 188.234375 C 72.109375 186.335938 69.769531 182.757812 68.738281 179.925781 L 68.972656 179.832031 C 69.113281 179.785156 69.230469 179.691406 69.347656 179.621094 C 69.464844 179.550781 69.582031 179.433594 69.675781 179.339844 C 69.769531 179.246094 69.863281 179.128906 69.957031 178.988281 C 70.027344 178.871094 70.097656 178.734375 70.144531 178.59375 C 70.191406 178.453125 70.238281 178.3125 70.261719 178.171875 C 70.285156 178.03125 70.308594 177.890625 70.308594 177.726562 C 70.308594 177.585938 70.285156 177.445312 70.261719 177.304688 C 70.238281 177.164062 70.191406 177.023438 70.121094 176.882812 L 69.113281 174.589844 C 69.863281 173.980469 70.519531 173.304688 71.101562 172.554688 C 71.6875 171.804688 72.179688 170.964844 72.554688 170.097656 C 74.472656 165.464844 71.992188 153.625 68.972656 149.972656 C 67.59375 148.335938 65.511719 147.398438 62.890625 147.234375 C 62.726562 146.929688 62.515625 146.652344 62.257812 146.394531 C 62 146.136719 61.742188 145.925781 61.4375 145.738281 C 61.132812 145.550781 60.808594 145.410156 60.457031 145.316406 C 60.105469 145.222656 59.753906 145.175781 59.402344 145.175781 C 59.238281 145.175781 59.074219 145.175781 58.910156 145.199219 C 58.746094 145.222656 58.582031 145.246094 58.441406 145.292969 C 58.28125 145.339844 58.140625 145.386719 57.976562 145.433594 C 57.835938 145.480469 57.671875 145.550781 57.53125 145.644531 C 57.390625 145.714844 57.25 145.808594 57.109375 145.902344 C 56.96875 145.996094 56.851562 146.089844 56.734375 146.207031 C 56.617188 146.324219 56.5 146.441406 56.40625 146.558594 C 56.3125 146.675781 56.195312 146.816406 56.125 146.953125 C 56.03125 147.09375 55.960938 147.234375 55.894531 147.375 C 55.824219 147.515625 55.753906 147.679688 55.707031 147.820312 C 55.660156 147.984375 55.613281 148.125 55.566406 148.289062 C 55.542969 148.453125 55.519531 148.617188 55.496094 148.78125 C 55.472656 148.945312 55.472656 149.109375 55.496094 149.273438 C 55.496094 149.433594 55.519531 149.597656 55.542969 149.761719 C 55.566406 149.925781 55.613281 150.089844 55.660156 150.230469 C 55.707031 150.394531 55.753906 150.535156 55.824219 150.675781 C 55.984375 151.027344 56.171875 151.355469 56.429688 151.660156 C 56.6875 151.960938 56.96875 152.195312 57.296875 152.40625 C 57.625 152.617188 57.976562 152.78125 58.351562 152.875 C 58.722656 152.96875 59.097656 153.039062 59.496094 153.015625 C 59.894531 153.015625 60.269531 152.945312 60.644531 152.828125 C 61.015625 152.710938 61.367188 152.523438 61.671875 152.3125 C 62 152.078125 62.28125 151.820312 62.515625 151.519531 C 62.75 151.214844 62.9375 150.863281 63.078125 150.511719 C 64.550781 150.652344 65.652344 151.144531 66.375 151.960938 L 66.445312 152.054688 C 67.523438 153.34375 68.691406 156.667969 69.394531 160.292969 C 70.074219 163.921875 70.144531 167.40625 69.535156 168.859375 C 68.433594 171.523438 65.417969 173.304688 64.480469 173.820312 C 63.449219 174.167969 60.105469 175.175781 57.414062 174.167969 C 55.9375 173.632812 53.460938 171.246094 51.234375 168.226562 C 49.011719 165.207031 47.398438 162.140625 47.1875 160.457031 C 47.046875 159.332031 47.421875 158.164062 48.359375 156.921875 C 48.5 156.992188 48.660156 157.039062 48.824219 157.0625 C 48.988281 157.109375 49.128906 157.132812 49.292969 157.15625 C 49.457031 157.179688 49.621094 157.179688 49.785156 157.203125 C 49.949219 157.203125 50.113281 157.203125 50.277344 157.179688 C 50.441406 157.15625 50.605469 157.132812 50.746094 157.085938 C 50.910156 157.039062 51.046875 156.992188 51.210938 156.945312 C 51.351562 156.898438 51.515625 156.828125 51.65625 156.757812 C 51.796875 156.691406 51.9375 156.597656 52.078125 156.503906 C 52.21875 156.410156 52.335938 156.316406 52.453125 156.199219 C 52.570312 156.082031 52.6875 155.988281 52.804688 155.847656 C 52.921875 155.730469 53.015625 155.589844 53.109375 155.472656 C 53.203125 155.332031 53.273438 155.191406 53.367188 155.050781 C 53.4375 154.910156 53.503906 154.769531 53.550781 154.605469 C 53.597656 154.464844 53.644531 154.300781 53.691406 154.140625 C 53.738281 153.976562 53.761719 153.835938 53.761719 153.671875 C 53.785156 153.507812 53.785156 153.34375 53.785156 153.179688 C 53.785156 153.015625 53.761719 152.851562 53.738281 152.6875 C 53.714844 152.523438 53.691406 152.359375 53.644531 152.21875 C 53.597656 152.054688 53.550781 151.914062 53.480469 151.753906 C 53.414062 151.613281 53.34375 151.449219 53.273438 151.308594 C 53.203125 151.167969 53.109375 151.027344 53.015625 150.910156 C 52.921875 150.769531 52.828125 150.652344 52.710938 150.535156 C 52.59375 150.417969 52.476562 150.300781 52.359375 150.207031 C 52.242188 150.113281 52.101562 150.019531 51.960938 149.925781 C 51.820312 149.832031 51.679688 149.761719 51.539062 149.691406 C 51.398438 149.621094 51.234375 149.550781 51.09375 149.503906 C 50.933594 149.457031 50.792969 149.410156 50.628906 149.386719 C 50.464844 149.363281 50.300781 149.339844 50.160156 149.320312 C 49.996094 149.296875 49.832031 149.296875 49.667969 149.320312 C 49.503906 149.320312 49.339844 149.339844 49.175781 149.363281 C 49.011719 149.386719 48.847656 149.433594 48.707031 149.480469 C 48.546875 149.527344 48.40625 149.574219 48.265625 149.644531 C 48.03125 149.738281 47.820312 149.855469 47.609375 149.996094 C 47.398438 150.136719 47.210938 150.300781 47.046875 150.464844 C 46.859375 150.652344 46.71875 150.839844 46.578125 151.027344 C 46.4375 151.214844 46.320312 151.449219 46.226562 151.683594 C 46.132812 151.914062 46.042969 152.148438 45.996094 152.382812 C 45.949219 152.617188 45.902344 152.875 45.902344 153.109375 C 45.902344 153.367188 45.902344 153.601562 45.949219 153.859375 C 45.996094 154.09375 46.042969 154.347656 46.132812 154.582031 C 44.308594 156.667969 43.585938 158.84375 43.863281 160.949219 Z M 43.863281 160.949219 " fill-opacity="1" fill-rule="nonzero"/><g transform="matrix(1, 0, 0, 1, 154, 167)"><g clip-path="url(#8479a0c858)"><g fill="#154a86" fill-opacity="1"><g transform="translate(0.328211, 31.042213)"><g><path d="M 23.59375 0 L 23.5625 -13.765625 L 16.8125 -2.421875 L 14.421875 -2.421875 L 7.703125 -13.46875 L 7.703125 0 L 2.71875 0 L 2.71875 -22.9375 L 7.109375 -22.9375 L 15.6875 -8.6875 L 24.140625 -22.9375 L 28.5 -22.9375 L 28.578125 0 Z M 23.59375 0 "/></g></g></g><g fill="#154a86" fill-opacity="1"><g transform="translate(31.619674, 31.042213)"><g><path d="M 20.484375 -4.265625 L 20.484375 0 L 2.71875 0 L 2.71875 -22.9375 L 20.046875 -22.9375 L 20.046875 -18.671875 L 8 -18.671875 L 8 -13.703125 L 18.640625 -13.703125 L 18.640625 -9.5625 L 8 -9.5625 L 8 -4.265625 Z M 20.484375 -4.265625 "/></g></g></g><g fill="#154a86" fill-opacity="1"><g transform="translate(53.605612, 31.042213)"><g><path d="M 2.71875 -22.9375 L 13.140625 -22.9375 C 15.628906 -22.9375 17.828125 -22.457031 19.734375 -21.5 C 21.648438 -20.550781 23.132812 -19.210938 24.1875 -17.484375 C 25.25 -15.765625 25.78125 -13.757812 25.78125 -11.46875 C 25.78125 -9.175781 25.25 -7.164062 24.1875 -5.4375 C 23.132812 -3.707031 21.648438 -2.367188 19.734375 -1.421875 C 17.828125 -0.472656 15.628906 0 13.140625 0 L 2.71875 0 Z M 12.875 -4.359375 C 15.164062 -4.359375 16.992188 -4.992188 18.359375 -6.265625 C 19.722656 -7.546875 20.40625 -9.28125 20.40625 -11.46875 C 20.40625 -13.65625 19.722656 -15.382812 18.359375 -16.65625 C 16.992188 -17.9375 15.164062 -18.578125 12.875 -18.578125 L 8.03125 -18.578125 L 8.03125 -4.359375 Z M 12.875 -4.359375 "/></g></g></g><g fill="#154a86" fill-opacity="1"><g transform="translate(80.670261, 31.042213)"><g><path d="M 19.5625 -11.921875 C 20.875 -11.503906 21.898438 -10.8125 22.640625 -9.84375 C 23.378906 -8.875 23.75 -7.679688 23.75 -6.265625 C 23.75 -4.253906 22.96875 -2.707031 21.40625 -1.625 C 19.84375 -0.539062 17.566406 0 14.578125 0 L 2.71875 0 L 2.71875 -22.9375 L 13.921875 -22.9375 C 16.722656 -22.9375 18.867188 -22.398438 20.359375 -21.328125 C 21.859375 -20.253906 22.609375 -18.800781 22.609375 -16.96875 C 22.609375 -15.851562 22.335938 -14.859375 21.796875 -13.984375 C 21.265625 -13.117188 20.519531 -12.429688 19.5625 -11.921875 Z M 8 -18.9375 L 8 -13.53125 L 13.265625 -13.53125 C 14.578125 -13.53125 15.570312 -13.757812 16.25 -14.21875 C 16.925781 -14.675781 17.265625 -15.351562 17.265625 -16.25 C 17.265625 -17.144531 16.925781 -17.816406 16.25 -18.265625 C 15.570312 -18.710938 14.578125 -18.9375 13.265625 -18.9375 Z M 14.1875 -4 C 15.582031 -4 16.632812 -4.226562 17.34375 -4.6875 C 18.0625 -5.144531 18.421875 -5.851562 18.421875 -6.8125 C 18.421875 -8.71875 17.007812 -9.671875 14.1875 -9.671875 L 8 -9.671875 L 8 -4 Z M 14.1875 -4 "/></g></g></g><g fill="#154a86" fill-opacity="1"><g transform="translate(105.736191, 31.042213)"><g><path d="M 2.71875 -22.9375 L 8.03125 -22.9375 L 8.03125 -4.328125 L 19.53125 -4.328125 L 19.53125 0 L 2.71875 0 Z M 2.71875 -22.9375 "/></g></g></g><g fill="#154a86" fill-opacity="1"><g transform="translate(125.52681, 31.042213)"><g><path d="M 13.828125 0.390625 C 11.441406 0.390625 9.289062 -0.117188 7.375 -1.140625 C 5.46875 -2.171875 3.972656 -3.585938 2.890625 -5.390625 C 1.816406 -7.191406 1.28125 -9.21875 1.28125 -11.46875 C 1.28125 -13.71875 1.816406 -15.742188 2.890625 -17.546875 C 3.972656 -19.347656 5.46875 -20.757812 7.375 -21.78125 C 9.289062 -22.8125 11.441406 -23.328125 13.828125 -23.328125 C 16.210938 -23.328125 18.351562 -22.8125 20.25 -21.78125 C 22.144531 -20.757812 23.640625 -19.347656 24.734375 -17.546875 C 25.828125 -15.742188 26.375 -13.71875 26.375 -11.46875 C 26.375 -9.21875 25.828125 -7.191406 24.734375 -5.390625 C 23.640625 -3.585938 22.144531 -2.171875 20.25 -1.140625 C 18.351562 -0.117188 16.210938 0.390625 13.828125 0.390625 Z M 13.828125 -4.125 C 15.179688 -4.125 16.40625 -4.4375 17.5 -5.0625 C 18.59375 -5.6875 19.445312 -6.554688 20.0625 -7.671875 C 20.6875 -8.785156 21 -10.050781 21 -11.46875 C 21 -12.882812 20.6875 -14.148438 20.0625 -15.265625 C 19.445312 -16.378906 18.59375 -17.25 17.5 -17.875 C 16.40625 -18.5 15.179688 -18.8125 13.828125 -18.8125 C 12.472656 -18.8125 11.25 -18.5 10.15625 -17.875 C 9.0625 -17.25 8.203125 -16.378906 7.578125 -15.265625 C 6.960938 -14.148438 6.65625 -12.882812 6.65625 -11.46875 C 6.65625 -10.050781 6.960938 -8.785156 7.578125 -7.671875 C 8.203125 -6.554688 9.0625 -5.6875 10.15625 -5.0625 C 11.25 -4.4375 12.472656 -4.125 13.828125 -4.125 Z M 13.828125 -4.125 "/></g></g></g><g fill="#154a86" fill-opacity="1"><g transform="translate(153.181245, 31.042213)"><g><path d="M 13.703125 0.390625 C 11.359375 0.390625 9.238281 -0.113281 7.34375 -1.125 C 5.457031 -2.144531 3.972656 -3.554688 2.890625 -5.359375 C 1.816406 -7.160156 1.28125 -9.195312 1.28125 -11.46875 C 1.28125 -13.738281 1.816406 -15.773438 2.890625 -17.578125 C 3.972656 -19.378906 5.457031 -20.785156 7.34375 -21.796875 C 9.238281 -22.816406 11.367188 -23.328125 13.734375 -23.328125 C 15.710938 -23.328125 17.503906 -22.976562 19.109375 -22.28125 C 20.722656 -21.582031 22.078125 -20.578125 23.171875 -19.265625 L 19.75 -16.125 C 18.207031 -17.914062 16.285156 -18.8125 13.984375 -18.8125 C 12.566406 -18.8125 11.300781 -18.5 10.1875 -17.875 C 9.070312 -17.25 8.203125 -16.378906 7.578125 -15.265625 C 6.960938 -14.148438 6.65625 -12.882812 6.65625 -11.46875 C 6.65625 -10.050781 6.960938 -8.785156 7.578125 -7.671875 C 8.203125 -6.554688 9.070312 -5.6875 10.1875 -5.0625 C 11.300781 -4.4375 12.566406 -4.125 13.984375 -4.125 C 16.285156 -4.125 18.207031 -5.03125 19.75 -6.84375 L 23.171875 -3.703125 C 22.078125 -2.367188 20.71875 -1.351562 19.09375 -0.65625 C 17.476562 0.0390625 15.679688 0.390625 13.703125 0.390625 Z M 13.703125 0.390625 "/></g></g></g></g></g><g fill="#27b29e" fill-opacity="1"><g transform="translate(136.971645, 227.817086)"><g><path d="M 4.9375 -3.640625 C 5.34375 -3.554688 5.671875 -3.351562 5.921875 -3.03125 C 6.171875 -2.707031 6.296875 -2.34375 6.296875 -1.9375 C 6.296875 -1.34375 6.085938 -0.867188 5.671875 -0.515625 C 5.253906 -0.171875 4.675781 0 3.9375 0 L 0.625 0 L 0.625 -7.109375 L 3.828125 -7.109375 C 4.546875 -7.109375 5.109375 -6.941406 5.515625 -6.609375 C 5.929688 -6.273438 6.140625 -5.828125 6.140625 -5.265625 C 6.140625 -4.847656 6.03125 -4.5 5.8125 -4.21875 C 5.59375 -3.945312 5.300781 -3.753906 4.9375 -3.640625 Z M 2.359375 -4.234375 L 3.5 -4.234375 C 3.78125 -4.234375 3.992188 -4.296875 4.140625 -4.421875 C 4.296875 -4.546875 4.375 -4.726562 4.375 -4.96875 C 4.375 -5.207031 4.296875 -5.390625 4.140625 -5.515625 C 3.992188 -5.648438 3.78125 -5.71875 3.5 -5.71875 L 2.359375 -5.71875 Z M 3.640625 -1.390625 C 3.921875 -1.390625 4.140625 -1.457031 4.296875 -1.59375 C 4.460938 -1.726562 4.546875 -1.921875 4.546875 -2.171875 C 4.546875 -2.421875 4.460938 -2.613281 4.296875 -2.75 C 4.128906 -2.894531 3.898438 -2.96875 3.609375 -2.96875 L 2.359375 -2.96875 L 2.359375 -1.390625 Z M 3.640625 -1.390625 "/></g></g></g><g fill="#27b29e" fill-opacity="1"><g transform="translate(147.675532, 227.817086)"><g><path d="M 2.359375 -7.5 L 2.359375 0 L 0.625 0 L 0.625 -7.5 Z M 2.359375 -7.5 "/></g></g></g><g fill="#27b29e" fill-opacity="1"><g transform="translate(154.698153, 227.817086)"><g><path d="M 3.203125 0.078125 C 2.648438 0.078125 2.148438 -0.0351562 1.703125 -0.265625 C 1.265625 -0.503906 0.914062 -0.84375 0.65625 -1.28125 C 0.40625 -1.71875 0.28125 -2.234375 0.28125 -2.828125 C 0.28125 -3.410156 0.40625 -3.921875 0.65625 -4.359375 C 0.914062 -4.796875 1.269531 -5.132812 1.71875 -5.375 C 2.164062 -5.613281 2.664062 -5.734375 3.21875 -5.734375 C 3.769531 -5.734375 4.269531 -5.613281 4.71875 -5.375 C 5.164062 -5.132812 5.515625 -4.796875 5.765625 -4.359375 C 6.023438 -3.921875 6.15625 -3.410156 6.15625 -2.828125 C 6.15625 -2.242188 6.023438 -1.726562 5.765625 -1.28125 C 5.503906 -0.84375 5.148438 -0.503906 4.703125 -0.265625 C 4.253906 -0.0351562 3.753906 0.078125 3.203125 0.078125 Z M 3.203125 -1.421875 C 3.535156 -1.421875 3.816406 -1.539062 4.046875 -1.78125 C 4.273438 -2.019531 4.390625 -2.367188 4.390625 -2.828125 C 4.390625 -3.273438 4.273438 -3.617188 4.046875 -3.859375 C 3.828125 -4.109375 3.550781 -4.234375 3.21875 -4.234375 C 2.882812 -4.234375 2.601562 -4.113281 2.375 -3.875 C 2.15625 -3.632812 2.046875 -3.285156 2.046875 -2.828125 C 2.046875 -2.367188 2.15625 -2.019531 2.375 -1.78125 C 2.59375 -1.539062 2.867188 -1.421875 3.203125 -1.421875 Z M 3.203125 -1.421875 "/></g></g></g><g fill="#27b29e" fill-opacity="1"><g transform="translate(165.179544, 227.817086)"><g><path d="M 0.28125 -2.828125 C 0.28125 -3.410156 0.398438 -3.921875 0.640625 -4.359375 C 0.878906 -4.796875 1.210938 -5.132812 1.640625 -5.375 C 2.066406 -5.613281 2.5625 -5.734375 3.125 -5.734375 C 3.832031 -5.734375 4.421875 -5.546875 4.890625 -5.171875 C 5.367188 -4.796875 5.679688 -4.273438 5.828125 -3.609375 L 3.984375 -3.609375 C 3.828125 -4.035156 3.53125 -4.25 3.09375 -4.25 C 2.769531 -4.25 2.515625 -4.125 2.328125 -3.875 C 2.140625 -3.632812 2.046875 -3.285156 2.046875 -2.828125 C 2.046875 -2.367188 2.140625 -2.015625 2.328125 -1.765625 C 2.515625 -1.515625 2.769531 -1.390625 3.09375 -1.390625 C 3.53125 -1.390625 3.828125 -1.609375 3.984375 -2.046875 L 5.828125 -2.046875 C 5.679688 -1.378906 5.367188 -0.859375 4.890625 -0.484375 C 4.410156 -0.109375 3.820312 0.078125 3.125 0.078125 C 2.5625 0.078125 2.066406 -0.0351562 1.640625 -0.265625 C 1.210938 -0.503906 0.878906 -0.84375 0.640625 -1.28125 C 0.398438 -1.71875 0.28125 -2.234375 0.28125 -2.828125 Z M 0.28125 -2.828125 "/></g></g></g><g fill="#27b29e" fill-opacity="1"><g transform="translate(175.337308, 227.817086)"><g><path d="M 4.078125 0 L 2.359375 -2.375 L 2.359375 0 L 0.625 0 L 0.625 -7.5 L 2.359375 -7.5 L 2.359375 -3.34375 L 4.0625 -5.65625 L 6.203125 -5.65625 L 3.859375 -2.8125 L 6.234375 0 Z M 4.078125 0 "/></g></g></g><g fill="#27b29e" fill-opacity="1"><g transform="translate(185.626542, 227.817086)"><g><path d="M 0.28125 -2.828125 C 0.28125 -3.410156 0.398438 -3.921875 0.640625 -4.359375 C 0.878906 -4.796875 1.210938 -5.132812 1.640625 -5.375 C 2.066406 -5.613281 2.5625 -5.734375 3.125 -5.734375 C 3.832031 -5.734375 4.421875 -5.546875 4.890625 -5.171875 C 5.367188 -4.796875 5.679688 -4.273438 5.828125 -3.609375 L 3.984375 -3.609375 C 3.828125 -4.035156 3.53125 -4.25 3.09375 -4.25 C 2.769531 -4.25 2.515625 -4.125 2.328125 -3.875 C 2.140625 -3.632812 2.046875 -3.285156 2.046875 -2.828125 C 2.046875 -2.367188 2.140625 -2.015625 2.328125 -1.765625 C 2.515625 -1.515625 2.769531 -1.390625 3.09375 -1.390625 C 3.53125 -1.390625 3.828125 -1.609375 3.984375 -2.046875 L 5.828125 -2.046875 C 5.679688 -1.378906 5.367188 -0.859375 4.890625 -0.484375 C 4.410156 -0.109375 3.820312 0.078125 3.125 0.078125 C 2.5625 0.078125 2.066406 -0.0351562 1.640625 -0.265625 C 1.210938 -0.503906 0.878906 -0.84375 0.640625 -1.28125 C 0.398438 -1.71875 0.28125 -2.234375 0.28125 -2.828125 Z M 0.28125 -2.828125 "/></g></g></g><g fill="#27b29e" fill-opacity="1"><g transform="translate(195.784305, 227.817086)"><g><path d="M 4.09375 -5.703125 C 4.75 -5.703125 5.269531 -5.488281 5.65625 -5.0625 C 6.050781 -4.632812 6.25 -4.046875 6.25 -3.296875 L 6.25 0 L 4.53125 0 L 4.53125 -3.0625 C 4.53125 -3.445312 4.429688 -3.742188 4.234375 -3.953125 C 4.035156 -4.160156 3.769531 -4.265625 3.4375 -4.265625 C 3.113281 -4.265625 2.851562 -4.160156 2.65625 -3.953125 C 2.457031 -3.742188 2.359375 -3.445312 2.359375 -3.0625 L 2.359375 0 L 0.625 0 L 0.625 -7.5 L 2.359375 -7.5 L 2.359375 -4.890625 C 2.535156 -5.140625 2.773438 -5.335938 3.078125 -5.484375 C 3.378906 -5.628906 3.71875 -5.703125 4.09375 -5.703125 Z M 4.09375 -5.703125 "/></g></g></g><g fill="#27b29e" fill-opacity="1"><g transform="translate(206.639884, 227.817086)"><g><path d="M 0.28125 -2.828125 C 0.28125 -3.410156 0.390625 -3.921875 0.609375 -4.359375 C 0.828125 -4.796875 1.125 -5.132812 1.5 -5.375 C 1.882812 -5.613281 2.3125 -5.734375 2.78125 -5.734375 C 3.175781 -5.734375 3.519531 -5.648438 3.8125 -5.484375 C 4.113281 -5.328125 4.347656 -5.113281 4.515625 -4.84375 L 4.515625 -5.65625 L 6.25 -5.65625 L 6.25 0 L 4.515625 0 L 4.515625 -0.796875 C 4.347656 -0.535156 4.113281 -0.320312 3.8125 -0.15625 C 3.507812 0 3.160156 0.078125 2.765625 0.078125 C 2.304688 0.078125 1.882812 -0.0390625 1.5 -0.28125 C 1.125 -0.519531 0.828125 -0.859375 0.609375 -1.296875 C 0.390625 -1.742188 0.28125 -2.253906 0.28125 -2.828125 Z M 4.515625 -2.828125 C 4.515625 -3.253906 4.394531 -3.59375 4.15625 -3.84375 C 3.914062 -4.09375 3.625 -4.21875 3.28125 -4.21875 C 2.9375 -4.21875 2.644531 -4.09375 2.40625 -3.84375 C 2.164062 -3.601562 2.046875 -3.265625 2.046875 -2.828125 C 2.046875 -2.398438 2.164062 -2.054688 2.40625 -1.796875 C 2.644531 -1.546875 2.9375 -1.421875 3.28125 -1.421875 C 3.625 -1.421875 3.914062 -1.546875 4.15625 -1.796875 C 4.394531 -2.046875 4.515625 -2.390625 4.515625 -2.828125 Z M 4.515625 -2.828125 "/></g></g></g><g fill="#27b29e" fill-opacity="1"><g transform="translate(217.546034, 227.817086)"><g><path d="M 1.5 -6.234375 C 1.195312 -6.234375 0.945312 -6.320312 0.75 -6.5 C 0.5625 -6.6875 0.46875 -6.910156 0.46875 -7.171875 C 0.46875 -7.441406 0.5625 -7.664062 0.75 -7.84375 C 0.945312 -8.019531 1.195312 -8.109375 1.5 -8.109375 C 1.789062 -8.109375 2.03125 -8.019531 2.21875 -7.84375 C 2.414062 -7.664062 2.515625 -7.441406 2.515625 -7.171875 C 2.515625 -6.910156 2.414062 -6.6875 2.21875 -6.5 C 2.03125 -6.320312 1.789062 -6.234375 1.5 -6.234375 Z M 2.359375 -5.65625 L 2.359375 0 L 0.625 0 L 0.625 -5.65625 Z M 2.359375 -5.65625 "/></g></g></g><g fill="#27b29e" fill-opacity="1"><g transform="translate(224.568655, 227.817086)"><g><path d="M 4.0625 -5.703125 C 4.726562 -5.703125 5.257812 -5.488281 5.65625 -5.0625 C 6.050781 -4.632812 6.25 -4.046875 6.25 -3.296875 L 6.25 0 L 4.53125 0 L 4.53125 -3.0625 C 4.53125 -3.445312 4.429688 -3.742188 4.234375 -3.953125 C 4.035156 -4.160156 3.769531 -4.265625 3.4375 -4.265625 C 3.113281 -4.265625 2.851562 -4.160156 2.65625 -3.953125 C 2.457031 -3.742188 2.359375 -3.445312 2.359375 -3.0625 L 2.359375 0 L 0.625 0 L 0.625 -5.65625 L 2.359375 -5.65625 L 2.359375 -4.90625 C 2.535156 -5.15625 2.769531 -5.347656 3.0625 -5.484375 C 3.363281 -5.628906 3.695312 -5.703125 4.0625 -5.703125 Z M 4.0625 -5.703125 "/></g></g></g><g fill="#27b29e" fill-opacity="1"><g transform="translate(235.424233, 227.817086)"><g/></g></g><g fill="#27b29e" fill-opacity="1"><g transform="translate(241.607442, 227.817086)"><g><path d="M 1.5 -6.234375 C 1.195312 -6.234375 0.945312 -6.320312 0.75 -6.5 C 0.5625 -6.6875 0.46875 -6.910156 0.46875 -7.171875 C 0.46875 -7.441406 0.5625 -7.664062 0.75 -7.84375 C 0.945312 -8.019531 1.195312 -8.109375 1.5 -8.109375 C 1.789062 -8.109375 2.03125 -8.019531 2.21875 -7.84375 C 2.414062 -7.664062 2.515625 -7.441406 2.515625 -7.171875 C 2.515625 -6.910156 2.414062 -6.6875 2.21875 -6.5 C 2.03125 -6.320312 1.789062 -6.234375 1.5 -6.234375 Z M 2.359375 -5.65625 L 2.359375 0 L 0.625 0 L 0.625 -5.65625 Z M 2.359375 -5.65625 "/></g></g></g><g fill="#27b29e" fill-opacity="1"><g transform="translate(248.630062, 227.817086)"><g><path d="M 4.0625 -5.703125 C 4.726562 -5.703125 5.257812 -5.488281 5.65625 -5.0625 C 6.050781 -4.632812 6.25 -4.046875 6.25 -3.296875 L 6.25 0 L 4.53125 0 L 4.53125 -3.0625 C 4.53125 -3.445312 4.429688 -3.742188 4.234375 -3.953125 C 4.035156 -4.160156 3.769531 -4.265625 3.4375 -4.265625 C 3.113281 -4.265625 2.851562 -4.160156 2.65625 -3.953125 C 2.457031 -3.742188 2.359375 -3.445312 2.359375 -3.0625 L 2.359375 0 L 0.625 0 L 0.625 -5.65625 L 2.359375 -5.65625 L 2.359375 -4.90625 C 2.535156 -5.15625 2.769531 -5.347656 3.0625 -5.484375 C 3.363281 -5.628906 3.695312 -5.703125 4.0625 -5.703125 Z M 4.0625 -5.703125 "/></g></g></g><g fill="#27b29e" fill-opacity="1"><g transform="translate(259.485641, 227.817086)"><g/></g></g><g fill="#27b29e" fill-opacity="1"><g transform="translate(265.668849, 227.817086)"><g><path d="M 4.09375 -5.703125 C 4.75 -5.703125 5.269531 -5.488281 5.65625 -5.0625 C 6.050781 -4.632812 6.25 -4.046875 6.25 -3.296875 L 6.25 0 L 4.53125 0 L 4.53125 -3.0625 C 4.53125 -3.445312 4.429688 -3.742188 4.234375 -3.953125 C 4.035156 -4.160156 3.769531 -4.265625 3.4375 -4.265625 C 3.113281 -4.265625 2.851562 -4.160156 2.65625 -3.953125 C 2.457031 -3.742188 2.359375 -3.445312 2.359375 -3.0625 L 2.359375 0 L 0.625 0 L 0.625 -7.5 L 2.359375 -7.5 L 2.359375 -4.890625 C 2.535156 -5.140625 2.773438 -5.335938 3.078125 -5.484375 C 3.378906 -5.628906 3.71875 -5.703125 4.09375 -5.703125 Z M 4.09375 -5.703125 "/></g></g></g><g fill="#27b29e" fill-opacity="1"><g transform="translate(276.524428, 227.817086)"><g><path d="M 5.953125 -2.921875 C 5.953125 -2.753906 5.941406 -2.582031 5.921875 -2.40625 L 2 -2.40625 C 2.03125 -2.0625 2.144531 -1.796875 2.34375 -1.609375 C 2.539062 -1.421875 2.785156 -1.328125 3.078125 -1.328125 C 3.503906 -1.328125 3.804688 -1.507812 3.984375 -1.875 L 5.828125 -1.875 C 5.734375 -1.5 5.5625 -1.160156 5.3125 -0.859375 C 5.0625 -0.566406 4.75 -0.335938 4.375 -0.171875 C 4.007812 -0.00390625 3.597656 0.078125 3.140625 0.078125 C 2.585938 0.078125 2.09375 -0.0351562 1.65625 -0.265625 C 1.226562 -0.503906 0.890625 -0.84375 0.640625 -1.28125 C 0.398438 -1.71875 0.28125 -2.234375 0.28125 -2.828125 C 0.28125 -3.410156 0.398438 -3.921875 0.640625 -4.359375 C 0.878906 -4.796875 1.210938 -5.132812 1.640625 -5.375 C 2.078125 -5.613281 2.578125 -5.734375 3.140625 -5.734375 C 3.679688 -5.734375 4.164062 -5.617188 4.59375 -5.390625 C 5.019531 -5.160156 5.351562 -4.832031 5.59375 -4.40625 C 5.832031 -3.976562 5.953125 -3.484375 5.953125 -2.921875 Z M 4.1875 -3.375 C 4.1875 -3.664062 4.082031 -3.898438 3.875 -4.078125 C 3.675781 -4.253906 3.425781 -4.34375 3.125 -4.34375 C 2.832031 -4.34375 2.582031 -4.257812 2.375 -4.09375 C 2.175781 -3.925781 2.054688 -3.6875 2.015625 -3.375 Z M 4.1875 -3.375 "/></g></g></g><g fill="#27b29e" fill-opacity="1"><g transform="translate(286.793439, 227.817086)"><g><path d="M 0.28125 -2.828125 C 0.28125 -3.410156 0.390625 -3.921875 0.609375 -4.359375 C 0.828125 -4.796875 1.125 -5.132812 1.5 -5.375 C 1.882812 -5.613281 2.3125 -5.734375 2.78125 -5.734375 C 3.175781 -5.734375 3.519531 -5.648438 3.8125 -5.484375 C 4.113281 -5.328125 4.347656 -5.113281 4.515625 -4.84375 L 4.515625 -5.65625 L 6.25 -5.65625 L 6.25 0 L 4.515625 0 L 4.515625 -0.796875 C 4.347656 -0.535156 4.113281 -0.320312 3.8125 -0.15625 C 3.507812 0 3.160156 0.078125 2.765625 0.078125 C 2.304688 0.078125 1.882812 -0.0390625 1.5 -0.28125 C 1.125 -0.519531 0.828125 -0.859375 0.609375 -1.296875 C 0.390625 -1.742188 0.28125 -2.253906 0.28125 -2.828125 Z M 4.515625 -2.828125 C 4.515625 -3.253906 4.394531 -3.59375 4.15625 -3.84375 C 3.914062 -4.09375 3.625 -4.21875 3.28125 -4.21875 C 2.9375 -4.21875 2.644531 -4.09375 2.40625 -3.84375 C 2.164062 -3.601562 2.046875 -3.265625 2.046875 -2.828125 C 2.046875 -2.398438 2.164062 -2.054688 2.40625 -1.796875 C 2.644531 -1.546875 2.9375 -1.421875 3.28125 -1.421875 C 3.625 -1.421875 3.914062 -1.546875 4.15625 -1.796875 C 4.394531 -2.046875 4.515625 -2.390625 4.515625 -2.828125 Z M 4.515625 -2.828125 "/></g></g></g><g fill="#27b29e" fill-opacity="1"><g transform="translate(297.699589, 227.817086)"><g><path d="M 2.359375 -7.5 L 2.359375 0 L 0.625 0 L 0.625 -7.5 Z M 2.359375 -7.5 "/></g></g></g><g fill="#27b29e" fill-opacity="1"><g transform="translate(304.72221, 227.817086)"><g><path d="M 3.78125 -1.46875 L 3.78125 0 L 2.890625 0 C 2.265625 0 1.773438 -0.148438 1.421875 -0.453125 C 1.078125 -0.765625 0.90625 -1.269531 0.90625 -1.96875 L 0.90625 -4.21875 L 0.21875 -4.21875 L 0.21875 -5.65625 L 0.90625 -5.65625 L 0.90625 -7.03125 L 2.625 -7.03125 L 2.625 -5.65625 L 3.765625 -5.65625 L 3.765625 -4.21875 L 2.625 -4.21875 L 2.625 -1.9375 C 2.625 -1.769531 2.664062 -1.648438 2.75 -1.578125 C 2.832031 -1.503906 2.96875 -1.46875 3.15625 -1.46875 Z M 3.78125 -1.46875 "/></g></g></g><g fill="#27b29e" fill-opacity="1"><g transform="translate(312.867416, 227.817086)"><g><path d="M 0.28125 -2.828125 C 0.28125 -3.410156 0.398438 -3.921875 0.640625 -4.359375 C 0.878906 -4.796875 1.210938 -5.132812 1.640625 -5.375 C 2.066406 -5.613281 2.5625 -5.734375 3.125 -5.734375 C 3.832031 -5.734375 4.421875 -5.546875 4.890625 -5.171875 C 5.367188 -4.796875 5.679688 -4.273438 5.828125 -3.609375 L 3.984375 -3.609375 C 3.828125 -4.035156 3.53125 -4.25 3.09375 -4.25 C 2.769531 -4.25 2.515625 -4.125 2.328125 -3.875 C 2.140625 -3.632812 2.046875 -3.285156 2.046875 -2.828125 C 2.046875 -2.367188 2.140625 -2.015625 2.328125 -1.765625 C 2.515625 -1.515625 2.769531 -1.390625 3.09375 -1.390625 C 3.53125 -1.390625 3.828125 -1.609375 3.984375 -2.046875 L 5.828125 -2.046875 C 5.679688 -1.378906 5.367188 -0.859375 4.890625 -0.484375 C 4.410156 -0.109375 3.820312 0.078125 3.125 0.078125 C 2.5625 0.078125 2.066406 -0.0351562 1.640625 -0.265625 C 1.210938 -0.503906 0.878906 -0.84375 0.640625 -1.28125 C 0.398438 -1.71875 0.28125 -2.234375 0.28125 -2.828125 Z M 0.28125 -2.828125 "/></g></g></g><g fill="#27b29e" fill-opacity="1"><g transform="translate(323.02518, 227.817086)"><g><path d="M 0.28125 -2.828125 C 0.28125 -3.410156 0.390625 -3.921875 0.609375 -4.359375 C 0.828125 -4.796875 1.125 -5.132812 1.5 -5.375 C 1.882812 -5.613281 2.3125 -5.734375 2.78125 -5.734375 C 3.175781 -5.734375 3.519531 -5.648438 3.8125 -5.484375 C 4.113281 -5.328125 4.347656 -5.113281 4.515625 -4.84375 L 4.515625 -5.65625 L 6.25 -5.65625 L 6.25 0 L 4.515625 0 L 4.515625 -0.796875 C 4.347656 -0.535156 4.113281 -0.320312 3.8125 -0.15625 C 3.507812 0 3.160156 0.078125 2.765625 0.078125 C 2.304688 0.078125 1.882812 -0.0390625 1.5 -0.28125 C 1.125 -0.519531 0.828125 -0.859375 0.609375 -1.296875 C 0.390625 -1.742188 0.28125 -2.253906 0.28125 -2.828125 Z M 4.515625 -2.828125 C 4.515625 -3.253906 4.394531 -3.59375 4.15625 -3.84375 C 3.914062 -4.09375 3.625 -4.21875 3.28125 -4.21875 C 2.9375 -4.21875 2.644531 -4.09375 2.40625 -3.84375 C 2.164062 -3.601562 2.046875 -3.265625 2.046875 -2.828125 C 2.046875 -2.398438 2.164062 -2.054688 2.40625 -1.796875 C 2.644531 -1.546875 2.9375 -1.421875 3.28125 -1.421875 C 3.625 -1.421875 3.914062 -1.546875 4.15625 -1.796875 C 4.394531 -2.046875 4.515625 -2.390625 4.515625 -2.828125 Z M 4.515625 -2.828125 "/></g></g></g><g fill="#27b29e" fill-opacity="1"><g transform="translate(333.931319, 227.817086)"><g><path d="M 2.359375 -4.703125 C 2.554688 -5.015625 2.804688 -5.257812 3.109375 -5.4375 C 3.421875 -5.613281 3.757812 -5.703125 4.125 -5.703125 L 4.125 -3.875 L 3.65625 -3.875 C 3.21875 -3.875 2.890625 -3.78125 2.671875 -3.59375 C 2.460938 -3.414062 2.359375 -3.09375 2.359375 -2.625 L 2.359375 0 L 0.625 0 L 0.625 -5.65625 L 2.359375 -5.65625 Z M 2.359375 -4.703125 "/></g></g></g><g fill="#27b29e" fill-opacity="1"><g transform="translate(342.299032, 227.817086)"><g><path d="M 5.953125 -2.921875 C 5.953125 -2.753906 5.941406 -2.582031 5.921875 -2.40625 L 2 -2.40625 C 2.03125 -2.0625 2.144531 -1.796875 2.34375 -1.609375 C 2.539062 -1.421875 2.785156 -1.328125 3.078125 -1.328125 C 3.503906 -1.328125 3.804688 -1.507812 3.984375 -1.875 L 5.828125 -1.875 C 5.734375 -1.5 5.5625 -1.160156 5.3125 -0.859375 C 5.0625 -0.566406 4.75 -0.335938 4.375 -0.171875 C 4.007812 -0.00390625 3.597656 0.078125 3.140625 0.078125 C 2.585938 0.078125 2.09375 -0.0351562 1.65625 -0.265625 C 1.226562 -0.503906 0.890625 -0.84375 0.640625 -1.28125 C 0.398438 -1.71875 0.28125 -2.234375 0.28125 -2.828125 C 0.28125 -3.410156 0.398438 -3.921875 0.640625 -4.359375 C 0.878906 -4.796875 1.210938 -5.132812 1.640625 -5.375 C 2.078125 -5.613281 2.578125 -5.734375 3.140625 -5.734375 C 3.679688 -5.734375 4.164062 -5.617188 4.59375 -5.390625 C 5.019531 -5.160156 5.351562 -4.832031 5.59375 -4.40625 C 5.832031 -3.976562 5.953125 -3.484375 5.953125 -2.921875 Z M 4.1875 -3.375 C 4.1875 -3.664062 4.082031 -3.898438 3.875 -4.078125 C 3.675781 -4.253906 3.425781 -4.34375 3.125 -4.34375 C 2.832031 -4.34375 2.582031 -4.257812 2.375 -4.09375 C 2.175781 -3.925781 2.054688 -3.6875 2.015625 -3.375 Z M 4.1875 -3.375 "/></g></g></g></svg>